<?xml version="1.0" encoding="UTF-8"?>
<svg version="1.1" xmlns="http://www.w3.org/2000/svg" width="943" height="652">
<path d="M0 0 C3.14431349 1.57215674 4.75985681 2.49837975 7.171875 4.79296875 C7.7496167 5.33719482 8.3273584 5.8814209 8.92260742 6.44213867 C9.52564697 7.01810791 10.12868652 7.59407715 10.75 8.1875 C12.01093348 9.37583379 13.27264591 10.56334163 14.53515625 11.75 C15.13730957 12.3171875 15.73946289 12.884375 16.35986328 13.46875 C18.85516815 15.79839456 21.42767949 18.03180907 24.01171875 20.26171875 C26.54052928 22.47256489 29.01872564 24.73596443 31.5 27 C35.28662998 30.45328153 39.1047632 33.86099051 42.97265625 37.22265625 C46.20124678 40.05311616 49.37913175 42.93961207 52.56640625 45.81640625 C54.67511146 47.70848685 56.79919801 49.57905758 58.9375 51.4375 C63.13164365 55.08937053 67.23094292 58.84266184 71.33984375 62.58984375 C74.18755795 65.16993136 77.07244018 67.70201856 79.97265625 70.22265625 C83.20124678 73.05311616 86.37913175 75.93961207 89.56640625 78.81640625 C91.67511146 80.70848685 93.79919801 82.57905758 95.9375 84.4375 C100.13164365 88.08937053 104.23094292 91.84266184 108.33984375 95.58984375 C111.18755795 98.16993136 114.07244018 100.70201856 116.97265625 103.22265625 C119.33489173 105.29359487 121.66795853 107.39512848 124 109.5 C127.61615223 112.76335689 131.26082556 115.98874156 134.9375 119.18359375 C137.31883716 121.28079409 139.6567516 123.42285703 142 125.5625 C144.8702893 128.15797437 147.73507732 130.61451624 150.875 132.875 C155.61998219 136.32327653 159.83200244 140.35035478 164.12109375 144.3359375 C166.40624183 146.45055214 168.71001986 148.52400591 171.0625 150.5625 C174.25244609 153.3280042 177.38092989 156.15475772 180.5 159 C184.28662998 162.45328153 188.1047632 165.86099051 191.97265625 169.22265625 C194.33489173 171.29359487 196.66795853 173.39512848 199 175.5 C201.98062721 178.18983431 204.97245233 180.86310364 208 183.5 C213.58979989 188.37143203 219.07534898 193.3589515 224.578125 198.328125 C229.00121401 202.31704577 233.44615005 206.27567907 237.9375 210.1875 C240.30964429 212.27211164 242.65556065 214.38428644 245 216.5 C254.60569028 226.19510313 254.60569028 226.19510313 266 233 C266.391875 233.70125 266.78375 234.4025 267.1875 235.125 C269.29256542 238.46406928 271.69463254 240.51748801 274.69140625 243.046875 C277.17538682 245.1483814 279.58882005 247.31544867 282 249.5 C284.98062721 252.18983431 287.97245233 254.86310364 291 257.5 C296.58979989 262.37143203 302.07534898 267.3589515 307.578125 272.328125 C312.00121401 276.31704577 316.44615005 280.27567907 320.9375 284.1875 C324.17375077 287.03147795 327.36408668 289.92612701 330.5625 292.8125 C332.69417481 294.72554149 334.8401911 296.61887612 337 298.5 C342.58979989 303.37143203 348.07534898 308.3589515 353.578125 313.328125 C357.36474959 316.74305638 361.15583617 320.14986526 365 323.5 C371.13952052 328.8533624 377.25647617 334.22097569 383 340 C364.97116898 340.28106438 346.94291101 340.49228987 328.91235828 340.62174606 C320.53921324 340.68346937 312.16743397 340.76752264 303.79516602 340.90527344 C296.49268894 341.02536484 289.19120134 341.10241029 281.88776416 341.12906194 C278.02456888 341.14462896 274.16420259 341.1808588 270.30191994 341.26876068 C243.65731446 341.85213034 243.65731446 341.85213034 236.39773846 335.80473709 C233.98221039 333.36240264 232.01577899 330.7842205 230 328 C228.64154312 326.72964718 227.25373513 325.48810311 225.8125 324.3125 C220.27358146 319.51674872 214.85925957 314.58199803 209.421875 309.671875 C205.63525041 306.25694362 201.84416383 302.85013474 198 299.5 C192.41020011 294.62856797 186.92465102 289.6410485 181.421875 284.671875 C177.63525041 281.25694362 173.84416383 277.85013474 170 274.5 C164.41020011 269.62856797 158.92465102 264.6410485 153.421875 259.671875 C149.6569915 256.27655062 145.88806449 252.88941658 142.0625 249.5625 C137.86835635 245.91062947 133.76905708 242.15733816 129.66015625 238.41015625 C127.43753696 236.39641748 125.19931651 234.40687963 122.9375 232.4375 C118.24682692 228.34246795 113.6282642 224.16543778 109 220 C108.67 259.6 108.34 299.2 108 340 C72.36 340 36.72 340 0 340 C0 227.8 0 115.6 0 0 Z " fill="#9E2C67" transform="translate(80,149)"/>
<path d="M0 0 C25.192532 -0.04687709 50.38505738 -0.08206543 75.57762432 -0.10362434 C87.27694348 -0.11390393 98.97623543 -0.12790027 110.67553711 -0.15087891 C120.88158574 -0.17091495 131.08761464 -0.18374049 141.2936824 -0.18817699 C146.68956911 -0.1907672 152.08539943 -0.19678482 157.48126793 -0.21146011 C162.57755119 -0.22520609 167.67375573 -0.22918892 172.77005577 -0.22621536 C174.62374298 -0.22675802 176.4774333 -0.23063279 178.33110428 -0.23841095 C194.92529288 -0.30452624 211.8744081 0.22163062 228.0625 4.1875 C228.9611377 4.40108154 229.85977539 4.61466309 230.78564453 4.8347168 C246.36814605 8.68327544 260.91938671 14.32968829 275 22 C276.53140625 22.81210938 276.53140625 22.81210938 278.09375 23.640625 C307.76084585 40.06917808 334.48341348 68.55572622 344.40625 101.5078125 C354.42893823 136.79654912 350.1592386 169.72316998 333 202 C317.4284283 229.82730619 288.14668242 254.40559446 258 265 C254.56356508 265.54038595 253.45638868 265.32833182 250.60546875 263.27734375 C249.80753906 262.50519531 249.00960937 261.73304688 248.1875 260.9375 C247.31480469 260.11121094 246.44210937 259.28492188 245.54296875 258.43359375 C244.70378906 257.63050781 243.86460937 256.82742188 243 256 C241.67458296 254.8243476 240.34189639 253.65680723 239 252.5 C235.10487189 249.10746907 231.27217237 245.64805799 227.4375 242.1875 C225.30582519 240.27445851 223.1598089 238.38112388 221 236.5 C217.16349106 233.15653639 213.3794551 229.7571166 209.6015625 226.34765625 C206.08451904 223.17386778 202.5574859 220.01122548 199.03125 216.84765625 C197.65711081 215.5977181 196.3135075 214.3135075 195 213 C195.90878906 212.6596875 196.81757813 212.319375 197.75390625 211.96875 C220.49873977 203.27408295 239.77219363 191.82555711 250.33984375 168.90234375 C253.87528538 160.82384985 255.53779063 152.7819781 256 144 C256.07927734 142.83404297 256.07927734 142.83404297 256.16015625 141.64453125 C256.85201701 123.20493784 248.7971896 106.68373815 237.21484375 92.87109375 C225.85547217 80.86721882 208.92824684 72.74564128 193 69 C192.30314087 68.835 191.60628174 68.67 190.88830566 68.5 C182.06131086 66.64578192 173.27376133 66.64939501 164.30078125 66.5859375 C162.61255483 66.56719142 160.92433745 66.54761554 159.23612976 66.5272522 C154.8288001 66.47628793 150.42144018 66.436473 146.01397705 66.39910889 C140.70646722 66.35174289 135.39910331 66.29030051 130.09171295 66.23126221 C122.06120204 66.14348616 114.03071288 66.07341041 106 66 C106 88.11 106 110.22 106 133 C102.56976401 130.94185841 100.34494555 129.59289781 97.6171875 126.9609375 C97.01261719 126.38480713 96.40804687 125.80867676 95.78515625 125.21508789 C95.15480469 124.60785889 94.52445312 124.00062988 93.875 123.375 C88.53856221 118.30420925 83.10663357 113.54505356 77.35546875 108.94921875 C74.60968106 106.67699975 72.14013401 104.23009106 69.6640625 101.671875 C67.27847909 99.27509166 64.72744074 97.09079027 62.16796875 94.8828125 C59.75157049 92.7842468 57.37470976 90.645603 55 88.5 C52.01937279 85.81016569 49.02754767 83.13689636 46 80.5 C42.97245233 77.86310364 39.98062721 75.18983431 37 72.5 C29.17508263 65.38622081 29.17508263 65.38622081 21 58.6875 C20.34 58.130625 19.68 57.57375 19 57 C19 56.34 19 55.68 19 55 C18.44183594 54.76023438 17.88367188 54.52046875 17.30859375 54.2734375 C14.49775719 52.72295913 12.4150509 50.80718126 10.0625 48.625 C6.43141422 45.2449809 6.43141422 45.2449809 2.37207031 42.42822266 C-0.66123383 39.32311325 -0.56846457 37.64953916 -0.56648254 33.44818115 C-0.54067612 32.59387512 -0.51486969 31.73956909 -0.48828125 30.859375 C-0.47766914 29.53610199 -0.47766914 29.53610199 -0.46684265 28.18609619 C-0.43889178 25.37319519 -0.37615381 22.56229748 -0.3125 19.75 C-0.28741794 17.84117462 -0.26460461 15.93231798 -0.24414062 14.0234375 C-0.18906299 9.34818848 -0.10278694 4.67443367 0 0 Z " fill="#AB2D64" transform="translate(80,76)"/>
<path d="M0 0 C31.68 0 63.36 0 96 0 C101.28 10.89 106.56 21.78 112 33 C113.60101562 36.29484375 115.20203125 39.5896875 116.8515625 42.984375 C118.80078125 46.99609375 118.80078125 46.99609375 119.71337891 48.87451172 C120.33862655 50.16084069 120.96429961 51.44696294 121.59033203 52.73291016 C125.82996456 61.44335078 129.97744373 70.18655497 134 79 C136.73862659 75.6660198 138.53715204 72.04661197 140.3359375 68.15625 C140.65169235 67.4828508 140.9674472 66.8094516 141.29277039 66.11564636 C142.32450546 63.91242422 143.34970036 61.70622327 144.375 59.5 C145.09129894 57.96831099 145.80801883 56.43681877 146.52514648 54.90551758 C149.93917773 47.60761847 153.32786696 40.29817031 156.69921875 32.98046875 C157.27488738 31.73306601 157.85057063 30.48567002 158.42626953 29.23828125 C159.4796036 26.95244258 160.52906967 24.66481547 161.57373047 22.375 C165.09066364 14.73245629 168.95699432 7.37432122 173 0 C178.94 0 184.88 0 191 0 C185.79622272 11.77696963 180.38688266 23.42587524 174.75 35 C169.84015159 45.08212454 165.01143543 55.19230997 160.3125 65.375 C156.01890194 74.67580802 151.67532609 83.94874293 147.25 93.1875 C146.73606689 94.26370605 146.22213379 95.33991211 145.69262695 96.44873047 C145.22171631 97.4285791 144.75080566 98.40842773 144.265625 99.41796875 C143.85086914 100.28188232 143.43611328 101.1457959 143.00878906 102.03588867 C142 104 142 104 141 105 C136.66684941 105.1438629 132.33487639 105.04208618 128 105 C121.98062338 93.02971052 116.06161757 81.01144868 110.17407227 68.97583008 C108.70129252 65.96568983 107.2266865 62.95644913 105.75195312 59.94726562 C99.4431755 47.06224353 93.21486455 34.14069785 87.05134583 21.18556213 C86.0547096 19.11373159 85.02817952 17.05635903 84 15 C50.835 14.505 50.835 14.505 17 14 C17 23.57 17 33.14 17 43 C19.52527344 42.91621094 22.05054688 42.83242188 24.65234375 42.74609375 C43.49673509 42.15341725 62.16656898 41.83300952 81 43 C81 47.62 81 52.24 81 57 C78.27521848 58.36239076 76.13159145 58.11969958 73.08154297 58.11352539 C71.84040741 58.11344986 70.59927185 58.11337433 69.32052612 58.11329651 C67.96107951 58.1081895 66.60163331 58.1029735 65.2421875 58.09765625 C63.85499116 58.09579142 62.46779416 58.09436782 61.08059692 58.09336853 C57.42765488 58.08954848 53.77475252 58.07972255 50.12182617 58.06866455 C46.39502509 58.05843944 42.66821742 58.0538138 38.94140625 58.04882812 C31.6275691 58.03863036 24.31384098 58.01905749 17 58 C17 68.89 17 79.78 17 91 C22.18589844 90.98839844 27.37179687 90.97679687 32.71484375 90.96484375 C35.9915377 90.9597369 39.26822678 90.95492312 42.54492188 90.95117188 C47.75090549 90.9451838 52.95687159 90.93808445 58.1628418 90.92456055 C62.35790258 90.91373041 66.55294459 90.9077229 70.74801826 90.90512276 C72.35206968 90.90326874 73.95612003 90.89964856 75.5601635 90.89426994 C77.79916515 90.88705781 80.0380883 90.88600913 82.27709961 90.88647461 C83.55395126 90.884254 84.83080292 90.88203339 86.14634705 90.87974548 C89 91 89 91 90 92 C90 96.29 90 100.58 90 105 C60.3 105 30.6 105 0 105 C0 70.35 0 35.7 0 0 Z " fill="#7A3B7D" transform="translate(588,439)"/>
<path d="M0 0 C5.61 0 11.22 0 17 0 C17.0231205 13.67302562 17.04091359 27.34604664 17.05181217 41.01908779 C17.05704164 47.36730576 17.06414044 53.7155104 17.07543945 60.0637207 C17.08626606 66.18448582 17.09227635 72.30523809 17.09487724 78.42601204 C17.0967319 80.76690943 17.10035329 83.10780609 17.10573006 85.44869804 C17.11293748 88.71508202 17.11399107 91.98141215 17.11352539 95.24780273 C17.11712067 96.226035 17.12071594 97.20426727 17.12442017 98.21214294 C17.1230455 99.09700378 17.12167084 99.98186462 17.12025452 100.89353943 C17.12163721 102.0536159 17.12163721 102.0536159 17.12304783 103.23712826 C17 105 17 105 16 106 C13.46950598 106.07313567 10.96695163 106.09247527 8.4375 106.0625 C7.37112305 106.05573242 7.37112305 106.05573242 6.28320312 106.04882812 C4.52209987 106.03700864 2.76103964 106.01907263 1 106 C0.34 104.35 -0.32 102.7 -1 101 C-1.80824219 101.34933594 -2.61648438 101.69867188 -3.44921875 102.05859375 C-4.51785156 102.51363281 -5.58648438 102.96867187 -6.6875 103.4375 C-7.74324219 103.88996094 -8.79898438 104.34242188 -9.88671875 104.80859375 C-20.71413692 108.95208502 -35.32077743 108.43288484 -46 104 C-57.44154283 98.65604587 -62.91179887 91.44845254 -68 80 C-68.33 88.25 -68.66 96.5 -69 105 C-74.94 105 -80.88 105 -87 105 C-87.0093457 103.3600708 -87.01869141 101.7201416 -87.02832031 100.03051758 C-87.06819559 93.94544319 -87.13394882 87.86087568 -87.20751953 81.77612305 C-87.23574319 79.14272575 -87.2569507 76.50924351 -87.27099609 73.87573242 C-87.2924052 70.08988923 -87.33904865 66.30506879 -87.390625 62.51953125 C-87.39185364 61.34227982 -87.39308228 60.16502838 -87.39434814 58.95210266 C-87.45986085 52.6025209 -87.45986085 52.6025209 -89.81933594 46.83081055 C-95.55425566 42.01596919 -101.78526944 41.46789222 -109.0234375 41.6328125 C-113.51858669 42.18733222 -117.0414851 43.90728193 -121 46 C-122.485 46.495 -122.485 46.495 -124 47 C-125.14209817 48.78228936 -125.14209817 48.78228936 -126 51 C-126.3427597 51.76692673 -126.68551941 52.53385345 -127.03866577 53.32402039 C-128.03053618 56.08500081 -128.27357794 58.14577717 -128.31884766 61.06567383 C-128.33871735 62.04631302 -128.35858704 63.02695221 -128.37905884 64.03730774 C-128.39638565 65.60632088 -128.39638565 65.60632088 -128.4140625 67.20703125 C-128.43342865 68.28756271 -128.4527948 69.36809418 -128.4727478 70.48136902 C-128.53242103 73.9249996 -128.57888041 77.36866383 -128.625 80.8125 C-128.66319101 83.15040502 -128.7022434 85.48829615 -128.7421875 87.82617188 C-128.83811271 93.55066805 -128.92218944 99.2752301 -129 105 C-134.61 105 -140.22 105 -146 105 C-147.08773688 88.36409096 -146.9452747 71.84746892 -146.5625 55.1875 C-146.50911201 52.63347712 -146.4563737 50.07944058 -146.40429688 47.52539062 C-146.27699747 41.35007774 -146.14098791 35.1750149 -146 29 C-140.39 29 -134.78 29 -129 29 C-129 29.99 -129 30.98 -129 32 C-128.02160156 31.58427734 -128.02160156 31.58427734 -127.0234375 31.16015625 C-126.14945313 30.79792969 -125.27546875 30.43570312 -124.375 30.0625 C-123.51648438 29.70285156 -122.65796875 29.34320313 -121.7734375 28.97265625 C-109.85481669 24.79274557 -95.62335689 26.07918193 -84.2421875 31.25390625 C-77.69894104 34.83804274 -72.52574475 39.23760255 -70.1953125 46.51171875 C-69.70000165 48.67276677 -69.29489825 50.80351645 -69 53 C-68.63648438 52.2265625 -68.27296875 51.453125 -67.8984375 50.65625 C-66.32759209 47.40178053 -64.68645499 44.1960091 -63 41 C-62.60167969 40.23042969 -62.20335937 39.46085937 -61.79296875 38.66796875 C-56.95948018 30.88835381 -47.40647489 27.54765503 -38.9296875 25.12109375 C-36.27626987 24.58058275 -33.69700291 24.22962099 -31 24 C-30.22914063 23.91878906 -29.45828125 23.83757812 -28.6640625 23.75390625 C-23.12385647 23.45020725 -18.03723084 24.51188571 -12.6875 25.8125 C-11.66426636 26.0602417 -11.66426636 26.0602417 -10.62036133 26.31298828 C-6.44677857 27.40505437 -3.80813126 28.71512124 0 31 C0 20.77 0 10.54 0 0 Z M-46.3125 46.3125 C-52.16016942 53.84455245 -53.50569546 62.08516427 -52.8203125 71.45703125 C-51.56472711 78.77273799 -47.73494664 84.73057619 -42.0625 89.4375 C-33.51066142 93.80068295 -25.26471887 94.30707608 -16.1875 91.375 C-11.23693131 89.41292694 -8.97046148 87.3628653 -6 83 C-5.49855469 82.51402344 -4.99710938 82.02804687 -4.48046875 81.52734375 C-0.22095368 77.13296277 0.23329138 71.31680135 0.375 65.5 C0.23111246 60.0823212 -0.41032619 55.76878957 -3 51 C-3.31710937 50.38511719 -3.63421875 49.77023437 -3.9609375 49.13671875 C-7.28040811 43.63958125 -11.86779121 40.71945308 -18 39 C-28.80907133 37.53157785 -38.57830615 38.01785732 -46.3125 46.3125 Z " fill="#B93667" transform="translate(748,299)"/>
<path d="M0 0 C5.61 0 11.22 0 17 0 C17.33 17.82 17.66 35.64 18 54 C19.98 50.04 21.96 46.08 24 42 C30.54982085 33.87822214 39.97495473 28.85305191 50.3125 27.24609375 C62.3942553 26.13977023 74.30650815 26.76212975 85 33 C85.66 31.02 86.32 29.04 87 27 C89.47923801 26.97314905 91.9581884 26.95323453 94.4375 26.9375 C95.14455078 26.92912109 95.85160156 26.92074219 96.58007812 26.91210938 C98.38693559 26.90346412 100.19387603 26.94779989 102 27 C103.68232339 28.68232339 103.12575392 30.75423024 103.13552856 32.99983215 C103.13249222 34.07209297 103.13249222 34.07209297 103.12939453 35.16601562 C103.13202301 36.29036263 103.13202301 36.29036263 103.13470459 37.43742371 C103.1391232 39.92705569 103.1361851 42.41661723 103.1328125 44.90625 C103.13348554 46.62878432 103.13445556 48.35131855 103.13571167 50.07385254 C103.13718865 53.68872988 103.13503407 57.30358255 103.13037109 60.91845703 C103.1246738 65.56266493 103.1279528 70.20681504 103.13394356 74.85102081 C103.13754916 78.40936726 103.13641059 81.9676999 103.13381577 85.52604675 C103.13314649 87.23894762 103.13397493 88.95184972 103.13629532 90.66474915 C103.13882183 93.05452822 103.1349813 95.44421241 103.12939453 97.83398438 C103.13141876 98.54882492 103.13344299 99.26366547 103.13552856 100.00016785 C103.11426269 104.88573731 103.11426269 104.88573731 102 106 C99.46950598 106.07313567 96.96695163 106.09247527 94.4375 106.0625 C93.37112305 106.05573242 93.37112305 106.05573242 92.28320312 106.04882812 C90.52209987 106.03700864 88.76103964 106.01907263 87 106 C86.34 104.35 85.68 102.7 85 101 C83.865625 101.61875 82.73125 102.2375 81.5625 102.875 C69.91468067 108.56769506 55.2729674 108.84296291 42.875 105.375 C33.6361132 102.04807339 26.72859296 95.93873747 21 88 C20.01 85.69 19.02 83.38 18 81 C17.67 88.92 17.34 96.84 17 105 C11.39 105 5.78 105 0 105 C-0.020625 102.2775 -0.04125 99.555 -0.0625 96.75 C-0.071604 95.89889648 -0.08070801 95.04779297 -0.09008789 94.17089844 C-0.09258545 93.4905957 -0.09508301 92.81029297 -0.09765625 92.109375 C-0.10289307 91.41811523 -0.10812988 90.72685547 -0.11352539 90.01464844 C0.00562029 87.90026102 0.42381763 86.03358485 1 84 C0.01 83.67 -0.98 83.34 -2 83 C-1.34 83 -0.68 83 0 83 C-0.00222061 82.43037033 -0.00444122 81.86074066 -0.00672913 81.27384949 C-0.02882725 75.35306423 -0.04392559 69.43229066 -0.05493164 63.51147461 C-0.059965 61.30085779 -0.06679217 59.09024431 -0.07543945 56.87963867 C-0.08754859 53.704907 -0.09323825 50.53021928 -0.09765625 47.35546875 C-0.10539818 45.86940376 -0.10539818 45.86940376 -0.11329651 44.35331726 C-0.11340981 42.97222527 -0.11340981 42.97222527 -0.11352539 41.56323242 C-0.115746 40.7527092 -0.11796661 39.94218597 -0.12025452 39.10710144 C0 37 0 37 1 34 C0.01 33.67 -0.98 33.34 -2 33 C-1.34 33 -0.68 33 0 33 C0 22.11 0 11.22 0 0 Z M40.3515625 47.39453125 C34.00902115 54.92859048 33.11550982 62.5439155 33.58984375 72.0625 C34.34277779 79.29066675 36.63102702 82.92493261 41.8125 87.875 C49.02415845 93.67338473 57.05248092 93.82018925 66 93 C74.08747272 91.30753731 79.47927605 86.84756716 84 80 C87.11524593 72.57211719 87.4173665 63.16659572 84.8125 55.5 C81.2413351 48.60395744 77.2233508 44.66771478 70 42 C60.05589354 39.57812891 48.16337069 39.95367485 40.3515625 47.39453125 Z " fill="#BA3667" transform="translate(493,299)"/>
<path d="M0 0 C5.61 0 11.22 0 17 0 C17 34.65 17 69.3 17 105 C11.39 105 5.78 105 0 105 C-0.495 92.625 -0.495 92.625 -1 80 C-2.65 83.3 -4.3 86.6 -6 90 C-12.37415941 98.89417592 -21.99753322 104.35549887 -32.69921875 106.5546875 C-47.54012168 108.55689216 -61.90069147 107.14690799 -74.71484375 98.8125 C-82.51818917 92.62317987 -87.15194575 84.7516825 -89 75 C-90.12068648 62.64668582 -88.48533773 53.09810435 -81.59765625 42.8125 C-80 41 -80 41 -77.93359375 40 C-75.8366564 39.15690687 -75.8366564 39.15690687 -75.0234375 37.03515625 C-72.64055628 32.29667871 -65.93322055 30.67945827 -61.19921875 29.015625 C-47.48020184 25.07999363 -31.82666133 25.62000978 -19.0625 32.375 C-10.57101972 37.63384025 -4.23657886 44.29026341 -1 54 C-0.67 36.18 -0.34 18.36 0 0 Z M-67 50 C-72.04136802 58.09070613 -73.4683901 66.37821535 -71.38671875 75.765625 C-68.87901974 82.96835521 -64.63129775 87.1373877 -58.23046875 91.09375 C-50.34895786 94.8026963 -39.54808828 94.29247933 -31.5 91.4375 C-25.4682656 88.5872295 -21.37851288 84.67936306 -18.3359375 78.765625 C-16.9144246 74.75878747 -16.49811975 71.26280829 -16.5625 67.0625 C-16.57152344 66.35810791 -16.58054687 65.65371582 -16.58984375 64.92797852 C-16.85688718 56.92316626 -19.02484209 52.65801183 -24.6875 47.1875 C-36.78480439 37.44739095 -56.60209966 37.90062506 -67 50 Z " fill="#B93667" transform="translate(472,299)"/>
<path d="M0 0 C9.8175 -0.061875 19.635 -0.12375 29.75 -0.1875 C32.82538086 -0.21481201 35.90076172 -0.24212402 39.06933594 -0.27026367 C41.54101165 -0.27903577 44.01269173 -0.28667799 46.484375 -0.29296875 C47.74008301 -0.30831665 48.99579102 -0.32366455 50.28955078 -0.33947754 C65.28229786 -0.34387166 79.18361694 3.18752748 90.375 13.625 C101.63367947 25.69690672 104.76876044 40.6450999 104.28125 56.66015625 C103.58028644 70.09821183 98.40080407 81.71500924 88.5390625 90.93359375 C77.43686058 99.96907808 63.62636475 105.14660453 49.27001953 105.11352539 C48.15409424 105.11340454 47.03816895 105.11328369 45.88842773 105.11315918 C44.73157471 105.10804321 43.57472168 105.10292725 42.3828125 105.09765625 C41.30765381 105.09664917 40.23249512 105.09564209 39.12475586 105.09460449 C35.12482632 105.08938928 31.12491204 105.07542804 27.125 105.0625 C13.698125 105.0315625 13.698125 105.0315625 0 105 C0 70.35 0 35.7 0 0 Z M17 14 C17 39.41 17 64.82 17 91 C49.55014018 92.9896738 49.55014018 92.9896738 77.2578125 80.03125 C85.0077366 72.13833837 87.33981644 63.24463676 87.4375 52.4375 C87.25431961 40.75523499 84.72230441 30.73734312 76.25390625 22.25 C64.73904038 12.67422796 50.83731351 13.49744305 36.75 13.75 C26.97375 13.87375 26.97375 13.87375 17 14 Z " fill="#7A397D" transform="translate(482,439)"/>
<path d="M0 0 C6.60568322 5.84659493 9.04742205 11.75424977 9.59765625 20.4140625 C9.66278529 24.35641581 9.57830717 28.28926022 9.4765625 32.23046875 C9.44114601 33.87607033 9.44114601 33.87607033 9.40501404 35.55491638 C9.32897421 39.02895004 9.24469598 42.50272635 9.16015625 45.9765625 C9.1068757 48.34438881 9.05413581 50.71222736 9.00195312 53.08007812 C8.87344075 58.85822911 8.73817973 64.63619181 8.59765625 70.4140625 C5.34462581 72.04057772 2.20540023 71.52859406 -1.40234375 71.4140625 C-3.09470008 69.72170617 -2.57068184 67.57114521 -2.60766602 65.25170898 C-2.63758385 63.60011024 -2.63758385 63.60011024 -2.66810608 61.91514587 C-2.68481857 60.7172493 -2.70153107 59.51935272 -2.71875 58.28515625 C-2.7395311 57.06578873 -2.76031219 55.8464212 -2.78172302 54.59010315 C-2.84734803 50.67731605 -2.90616347 46.76445933 -2.96484375 42.8515625 C-3.00801666 40.20637288 -3.05163053 37.56119041 -3.09570312 34.91601562 C-3.20304255 28.41543914 -3.30478442 21.91479271 -3.40234375 15.4140625 C-4.06234375 15.4140625 -4.72234375 15.4140625 -5.40234375 15.4140625 C-5.73234375 16.0740625 -6.06234375 16.7340625 -6.40234375 17.4140625 C-6.89734375 16.6509375 -7.39234375 15.8878125 -7.90234375 15.1015625 C-12.56857913 10.08535947 -17.75046102 9.22838604 -24.33984375 8.9765625 C-30.16400176 9.10926483 -34.3236843 10.7291661 -39.40234375 13.4140625 C-40.39234375 13.7440625 -41.38234375 14.0740625 -42.40234375 14.4140625 C-43.54444192 16.19635186 -43.54444192 16.19635186 -44.40234375 18.4140625 C-44.74510345 19.18098923 -45.08786316 19.94791595 -45.44100952 20.73808289 C-46.43287993 23.49906331 -46.67592169 25.55983967 -46.72119141 28.47973633 C-46.7410611 29.46037552 -46.76093079 30.44101471 -46.78140259 31.45137024 C-46.7987294 33.02038338 -46.7987294 33.02038338 -46.81640625 34.62109375 C-46.8357724 35.70162521 -46.85513855 36.78215668 -46.87509155 37.89543152 C-46.93476478 41.3390621 -46.98122416 44.78272633 -47.02734375 48.2265625 C-47.06553476 50.56446752 -47.10458715 52.90235865 -47.14453125 55.24023438 C-47.24045646 60.96473055 -47.32453319 66.6892926 -47.40234375 72.4140625 C-53.01234375 72.4140625 -58.62234375 72.4140625 -64.40234375 72.4140625 C-65.49008063 55.77815346 -65.34761845 39.26153142 -64.96484375 22.6015625 C-64.91145576 20.04753962 -64.85871745 17.49350308 -64.80664062 14.93945312 C-64.67934122 8.76414024 -64.54333166 2.5890774 -64.40234375 -3.5859375 C-58.79234375 -3.5859375 -53.18234375 -3.5859375 -47.40234375 -3.5859375 C-47.40234375 -2.5959375 -47.40234375 -1.6059375 -47.40234375 -0.5859375 C-46.75007812 -0.86308594 -46.0978125 -1.14023437 -45.42578125 -1.42578125 C-44.55179688 -1.78800781 -43.6778125 -2.15023438 -42.77734375 -2.5234375 C-41.91882813 -2.88308594 -41.0603125 -3.24273437 -40.17578125 -3.61328125 C-28.09773079 -7.84910458 -10.98227921 -7.06967359 0 0 Z " fill="#B72E61" transform="translate(666.40234375,331.5859375)"/>
<path d="M0 0 C4.29 0 8.58 0 13 0 C13 34.32 13 68.64 13 104 C9.04 104 5.08 104 1 104 C-0.14695805 101.7060839 -0.12338652 100.43662851 -0.12025452 97.88717651 C-0.12162918 97.02618347 -0.12300385 96.16519043 -0.12442017 95.27810669 C-0.12082489 94.33152191 -0.11722961 93.38493713 -0.11352539 92.40966797 C-0.11367142 91.41451172 -0.11381744 90.41935547 -0.1139679 89.39404297 C-0.11326931 86.09340257 -0.10547944 82.79281808 -0.09765625 79.4921875 C-0.09579188 77.20818106 -0.09436807 74.92417422 -0.09336853 72.64016724 C-0.08954487 66.61988222 -0.07971586 60.59962121 -0.06866455 54.5793457 C-0.05844718 48.43961919 -0.05387021 42.29988881 -0.04882812 36.16015625 C-0.03809348 24.10676027 -0.02101885 12.05338213 0 0 Z " fill="#B62A5D" transform="translate(495,299)"/>
<path d="M0 0 C3.96 0 7.92 0 12 0 C12 34.32 12 68.64 12 104 C8.04 104 4.08 104 0 104 C0 69.68 0 35.36 0 0 Z " fill="#B62A5E" transform="translate(474,299)"/>
<path d="M0 0 C64.68 0 129.36 0 196 0 C196 0.66 196 1.32 196 2 C100.465 2.495 100.465 2.495 3 3 C2.67 15.21 2.34 27.42 2 40 C1.34 40 0.68 40 0 40 C0 26.8 0 13.6 0 0 Z " fill="#C4698C" transform="translate(80,76)"/>
<path d="M0 0 C0.66 0 1.32 0 2 0 C2.33 34.32 2.66 68.64 3 104 C6.96 104 10.92 104 15 104 C15 69.68 15 35.36 15 0 C15.66 0 16.32 0 17 0 C17.13241416 7.23408139 17.26291143 14.46819491 17.39115143 21.70235157 C17.45079448 25.06371078 17.51121462 28.42505162 17.57275391 31.78637695 C18.31118944 72.18181454 18.31118944 72.18181454 17.5 92.1875 C17.45230469 93.43724609 17.40460938 94.68699219 17.35546875 95.97460938 C17.24019716 98.98319793 17.12059361 101.99162006 17 105 C11.39 105 5.78 105 0 105 C-0.020625 102.2775 -0.04125 99.555 -0.0625 96.75 C-0.071604 95.89889648 -0.08070801 95.04779297 -0.09008789 94.17089844 C-0.09258545 93.4905957 -0.09508301 92.81029297 -0.09765625 92.109375 C-0.10289307 91.41811523 -0.10812988 90.72685547 -0.11352539 90.01464844 C0.00562029 87.90026102 0.42381763 86.03358485 1 84 C0.01 83.67 -0.98 83.34 -2 83 C-1.34 83 -0.68 83 0 83 C-0.00222061 82.43037033 -0.00444122 81.86074066 -0.00672913 81.27384949 C-0.02882725 75.35306423 -0.04392559 69.43229066 -0.05493164 63.51147461 C-0.059965 61.30085779 -0.06679217 59.09024431 -0.07543945 56.87963867 C-0.08754859 53.704907 -0.09323825 50.53021928 -0.09765625 47.35546875 C-0.10539818 45.86940376 -0.10539818 45.86940376 -0.11329651 44.35331726 C-0.11340981 42.97222527 -0.11340981 42.97222527 -0.11352539 41.56323242 C-0.115746 40.7527092 -0.11796661 39.94218597 -0.12025452 39.10710144 C0 37 0 37 1 34 C0.01 33.67 -0.98 33.34 -2 33 C-1.34 33 -0.68 33 0 33 C0 22.11 0 11.22 0 0 Z " fill="#CE6F93" transform="translate(493,299)"/>
<path d="M0 0 C4.51481576 1.50493859 6.80173045 4.99914942 9 9 C16.92250536 26.16542828 11.74444445 51.78769823 11 70 C5.06 70 -0.88 70 -7 70 C-7 51.19 -7 32.38 -7 13 C-6.34 13 -5.68 13 -5 13 C-4.10113192 16.09793743 -3.85048451 18.91489383 -3.79467773 22.13574219 C-3.77473251 23.15649841 -3.75478729 24.17725464 -3.73423767 25.22894287 C-3.70916893 26.87131927 -3.70916893 26.87131927 -3.68359375 28.546875 C-3.66281265 29.6732135 -3.64203156 30.799552 -3.62062073 31.96002197 C-3.55525667 35.55661949 -3.49630115 39.15328977 -3.4375 42.75 C-3.3943023 45.1888096 -3.3506876 47.62761184 -3.30664062 50.06640625 C-3.19958866 56.04419634 -3.09828396 62.02205958 -3 68 C0.3 68 3.6 68 7 68 C7.10169191 60.17133723 7.1715885 52.34284578 7.21972656 44.51367188 C7.23753649 41.85189753 7.26706285 39.19098972 7.30175781 36.52929688 C7.35045548 32.6965042 7.37301116 28.86429637 7.390625 25.03125 C7.41127014 23.84760864 7.43191528 22.66396729 7.45318604 21.44445801 C7.45556159 12.63366594 5.74037844 6.88845413 0 0 Z " fill="#C1678C" transform="translate(668,334)"/>
<path d="M0 0 C0.33 0 0.66 0 1 0 C1 34.32 1 68.64 1 104 C4.96 104 8.92 104 13 104 C13 69.68 13 35.36 13 0 C13.99 0 14.98 0 16 0 C16 34.65 16 69.3 16 105 C10.72 105 5.44 105 0 105 C0 70.35 0 35.7 0 0 Z " fill="#C87D9C" transform="translate(473,299)"/>
<path d="M0 0 C4.95 0 9.9 0 15 0 C15 1.65 15 3.3 15 5 C14.34 4.01 13.68 3.02 13 2 C9.7 2 6.4 2 3 2 C2.67 26.09 2.34 50.18 2 75 C5.96 75 9.92 75 14 75 C13.97905273 73.7404248 13.95810547 72.48084961 13.93652344 71.18310547 C13.86333564 66.44559398 13.81791777 61.70813089 13.78027344 56.97021484 C13.76033546 54.9317175 13.73317498 52.893276 13.69824219 50.85498047 C13.26665233 24.99767049 13.26665233 24.99767049 18 17 C21.08496094 15.76904297 21.08496094 15.76904297 24 15 C24.33 14.34 24.66 13.68 25 13 C26.98 13 28.96 13 31 13 C30.01 13.66 29.02 14.32 28 15 C27.319375 15.53625 26.63875 16.0725 25.9375 16.625 C24 18 24 18 22 18 C19.56356721 22.69883466 17.76419603 26.709356 17.68115234 32.06567383 C17.66128265 33.04631302 17.64141296 34.02695221 17.62094116 35.03730774 C17.60361435 36.60632088 17.60361435 36.60632088 17.5859375 38.20703125 C17.56657135 39.28756271 17.5472052 40.36809418 17.5272522 41.48136902 C17.46757897 44.9249996 17.42111959 48.36866383 17.375 51.8125 C17.33680899 54.15040502 17.2977566 56.48829615 17.2578125 58.82617188 C17.16188729 64.55066805 17.07781056 70.2752301 17 76 C11.39 76 5.78 76 0 76 C-1.08773688 59.36409096 -0.9452747 42.84746892 -0.5625 26.1875 C-0.50911201 23.63347712 -0.4563737 21.07944058 -0.40429688 18.52539062 C-0.27699747 12.35007774 -0.14098791 6.1750149 0 0 Z " fill="#AD4B71" transform="translate(602,328)"/>
<path d="M0 0 C0.33 0 0.66 0 1 0 C1 34.65 1 69.3 1 105 C0.67 105 0.34 105 0 105 C0 95.43 0 85.86 0 76 C-0.66 76 -1.32 76 -2 76 C-2.33 68.74 -2.66 61.48 -3 54 C-2.34 54 -1.68 54 -1 54 C-0.67 36.18 -0.34 18.36 0 0 Z " fill="#EC9CBC" transform="translate(472,299)"/>
<path d="M0 0 C1.98 0 3.96 0 6 0 C5.01 0.66 4.02 1.32 3 2 C2.319375 2.53625 1.63875 3.0725 0.9375 3.625 C-1 5 -1 5 -3 5 C-5.43643279 9.69883466 -7.23580397 13.709356 -7.31884766 19.06567383 C-7.33871735 20.04631302 -7.35858704 21.02695221 -7.37905884 22.03730774 C-7.39061005 23.0833165 -7.40216125 24.12932526 -7.4140625 25.20703125 C-7.43342865 26.28756271 -7.4527948 27.36809418 -7.4727478 28.48136902 C-7.53242103 31.9249996 -7.57888041 35.36866383 -7.625 38.8125 C-7.66319101 41.15040502 -7.7022434 43.48829615 -7.7421875 45.82617188 C-7.83811253 51.55065765 -7.92319593 57.27522748 -8 63 C-8.66 63 -9.32 63 -10 63 C-10.07650946 56.20482657 -10.1287916 49.40976559 -10.16479492 42.61425781 C-10.17981541 40.30594735 -10.20023779 37.99766512 -10.22631836 35.68945312 C-10.26299885 32.35800175 -10.27979431 29.02693005 -10.29296875 25.6953125 C-10.30845261 24.67511017 -10.32393646 23.65490784 -10.33988953 22.60379028 C-10.34137364 16.18340157 -9.89290655 9.84837447 -7 4 C-3.875 2.5 -3.875 2.5 -1 2 C-0.67 1.34 -0.34 0.68 0 0 Z " fill="#FEBFEF" transform="translate(627,341)"/>
<path d="M0 0 C1.98 0 3.96 0 6 0 C4.39109621 1.07260253 2.77679104 2.13822145 1.1328125 3.15625 C-5.59973745 7.6620811 -9.01499589 13.02961743 -10.59375 20.99609375 C-11.86269771 32.31568416 -9.23010013 39.61566679 -3 49 C-8.43797867 46.69753669 -10.63930431 42.35504868 -12.796875 37.03515625 C-14.22706424 32.0005036 -14.06900437 26.99932578 -13.8125 21.8125 C-13.78269043 21.13509766 -13.75288086 20.45769531 -13.72216797 19.75976562 C-13.40265694 15.22204105 -12.35634175 11.88414438 -10 8 C-8.125 6.875 -8.125 6.875 -6 6 C-2.44767305 3.47623334 -2.44767305 3.47623334 0 0 Z " fill="#EAA5C3" transform="translate(707,338)"/>
<path d="M0 0 C1.32 0.33 2.64 0.66 4 1 C2.63875 1.99 2.63875 1.99 1.25 3 C-3.23977339 6.71494252 -5.19211814 11.57635441 -7 17 C-7.73646933 24.93213688 -7.24500557 32.10033677 -3 39 C-0.85006955 41.30185273 1.41126887 43.2111577 4 45 C3.01 45.495 3.01 45.495 2 46 C0.6781638 44.92807816 -0.63217927 43.84197305 -1.9375 42.75 C-2.66839844 42.14671875 -3.39929688 41.5434375 -4.15234375 40.921875 C-6.10326334 38.89258866 -6.61731779 37.745593 -7 35 C-7.66 35 -8.32 35 -9 35 C-10.80504424 31.38991151 -10.18469906 27.16202835 -10.1875 23.1875 C-10.19974609 22.28451172 -10.21199219 21.38152344 -10.22460938 20.45117188 C-10.23470822 15.86966261 -10.20121607 12.15011884 -8 8 C-7.01 8 -6.02 8 -5 8 C-4.731875 7.4225 -4.46375 6.845 -4.1875 6.25 C-2.98280141 3.9674132 -1.59201885 2.0262058 0 0 Z " fill="#DD88A9" transform="translate(408,343)"/>
<path d="M0 0 C0.66 0 1.32 0 2 0 C2.89148814 4.57064553 3.15498192 8.98315669 3.125 13.625 C3.12306641 14.37120605 3.12113281 15.11741211 3.11914062 15.88623047 C3.03300016 27.92914562 2.48344522 39.96787129 2 52 C1.34 52 0.68 52 0 52 C0 34.84 0 17.68 0 0 Z " fill="#FDBFEB" transform="translate(677,352)"/>
<path d="M0 0 C1 2 1 2 0.29296875 4.2421875 C-0.07183594 5.11101562 -0.43664062 5.97984375 -0.8125 6.875 C-1.16957031 7.73867188 -1.52664063 8.60234375 -1.89453125 9.4921875 C-3 12 -3 12 -4.04321289 13.80419922 C-5.22348669 16.51289597 -5.31991601 18.69070179 -5.4140625 21.640625 C-5.45273437 22.71054687 -5.49140625 23.78046875 -5.53125 24.8828125 C-5.5621875 25.99398438 -5.593125 27.10515625 -5.625 28.25 C-5.66367187 29.37664062 -5.70234375 30.50328125 -5.7421875 31.6640625 C-5.83637336 34.44254548 -5.92199586 37.22102334 -6 40 C-5.34 40.33 -4.68 40.66 -4 41 C-4.33 41.66 -4.66 42.32 -5 43 C-4.34 43 -3.68 43 -3 43 C-2.30034557 44.26418246 -1.61565237 45.53665402 -0.9375 46.8125 C-0.36322266 47.87404297 -0.36322266 47.87404297 0.22265625 48.95703125 C1 51 1 51 0 54 C-8.28328515 41.75740874 -9.76379056 29.21396306 -7.25 14.625 C-5.99518585 9.19344732 -3.98104582 3.98104582 0 0 Z " fill="#B74974" transform="translate(687,338)"/>
<path d="M0 0 C3.40289904 4.53719872 3.39580171 7.13267437 3.25 12.5 C3.24484375 13.25925781 3.2396875 14.01851562 3.234375 14.80078125 C3.18458011 18.35489178 2.95107432 21.58070675 2 25 C1.34 25 0.68 25 0 25 C-0.33 25.66 -0.66 26.32 -1 27 C-0.67 18.09 -0.34 9.18 0 0 Z " fill="#BE779D" transform="translate(427,203)"/>
<path d="M0 0 C1.18239258 0.01353516 1.18239258 0.01353516 2.38867188 0.02734375 C4.32174666 0.05077496 6.2546638 0.08664162 8.1875 0.125 C8.1875 0.455 8.1875 0.785 8.1875 1.125 C7.1975 1.22296875 6.2075 1.3209375 5.1875 1.421875 C-5.52810489 2.28331855 -5.52810489 2.28331855 -14.8125 7.125 C-16.59105893 9.43912499 -18.12673944 11.76977222 -19.5859375 14.296875 C-19.99070312 14.90015625 -20.39546875 15.5034375 -20.8125 16.125 C-21.4725 16.125 -22.1325 16.125 -22.8125 16.125 C-22.625 12.8125 -22.625 12.8125 -21.8125 9.125 C-19.18389473 7.04978531 -16.98219389 6.18156463 -13.8125 5.125 C-13.8125 4.135 -13.8125 3.145 -13.8125 2.125 C-9.18433267 -0.23082065 -5.05715865 -0.11021469 0 0 Z " fill="#C25D88" transform="translate(549.8125,338.875)"/>
<path d="M0 0 C1.98 0 3.96 0 6 0 C4.40457982 1.06361345 2.80349577 2.12024886 1.16796875 3.12109375 C-5.03994034 7.24745541 -7.87031807 12.33757105 -11 19 C-11.66 19 -12.32 19 -13 19 C-12.38257932 11.46746774 -12.38257932 11.46746774 -10.71484375 9.4296875 C-8.1478926 7.289587 -5.45348993 5.35388561 -2.7421875 3.40234375 C-0.87638366 2.09971059 -0.87638366 2.09971059 0 0 Z " fill="#D67CA0" transform="translate(707,338)"/>
<path d="M0 0 C1.32 0.33 2.64 0.66 4 1 C2.63875 1.99 2.63875 1.99 1.25 3 C-3.73136678 7.13547431 -5.77443871 13.06516988 -8 19 C-8.66 19 -9.32 19 -10 19 C-9.67 15.7 -9.34 12.4 -9 9 C-7.68 8.67 -6.36 8.34 -5 8 C-3.87483915 6.16715557 -3.87483915 6.16715557 -3 4 C-2.02418241 2.64886795 -1.02970259 1.31053056 0 0 Z " fill="#D17A9E" transform="translate(408,343)"/>
<path d="M0 0 C0.33 0 0.66 0 1 0 C1.33 6.6 1.66 13.2 2 20 C5.96 20 9.92 20 14 20 C14 20.33 14 20.66 14 21 C9.05 21 4.1 21 -1 21 C-1.0270203 18.24993392 -1.04684883 15.50013454 -1.0625 12.75 C-1.07087891 11.97269531 -1.07925781 11.19539063 -1.08789062 10.39453125 C-1.09111328 9.64042969 -1.09433594 8.88632812 -1.09765625 8.109375 C-1.10289307 7.41811523 -1.10812988 6.72685547 -1.11352539 6.01464844 C-0.99437971 3.90026102 -0.57618237 2.03358485 0 0 Z " fill="#BD5F82" transform="translate(494,383)"/>
<path d="M0 0 C0.66 0 1.32 0 2 0 C2 0.66 2 1.32 2 2 C2.66 2 3.32 2 4 2 C5.17426264 4.34852528 5.11508173 5.73774065 5.09765625 8.3515625 C5.09443359 9.20234375 5.09121094 10.053125 5.08789062 10.9296875 C5.07951172 11.81914062 5.07113281 12.70859375 5.0625 13.625 C5.05798828 14.5221875 5.05347656 15.419375 5.04882812 16.34375 C5.03702591 18.56256648 5.02056155 20.78125018 5 23 C4.34 23 3.68 23 3 23 C2.67 24.32 2.34 25.64 2 27 C1.67 26.34 1.34 25.68 1 25 C1.33 24.01 1.66 23.02 2 22 C2.12271523 19.38302629 2.18512754 16.80432239 2.1875 14.1875 C2.19974609 13.48818359 2.21199219 12.78886719 2.22460938 12.06835938 C2.23699659 7.65438345 1.62789183 4.09868416 0 0 Z " fill="#D1769B" transform="translate(452,352)"/>
<path d="M0 0 C1.98 0 3.96 0 6 0 C5.01 0.66 4.02 1.32 3 2 C2.319375 2.53625 1.63875 3.0725 0.9375 3.625 C-1 5 -1 5 -3 5 C-4.86551426 8.58752742 -6.42535928 12.27812193 -8 16 C-8.66 16 -9.32 16 -10 16 C-9.28293792 11.88632808 -8.48545852 7.91025109 -7 4 C-3.875 2.375 -3.875 2.375 -1 2 C-0.67 1.34 -0.34 0.68 0 0 Z " fill="#D87FA3" transform="translate(627,341)"/>
<path d="M0 0 C0.99 0.33 1.98 0.66 3 1 C3.96498987 6.93839923 3.89149123 12.05803804 3.0625 18 C2.91264648 19.16208984 2.91264648 19.16208984 2.75976562 20.34765625 C2.51537681 22.23294139 2.25895913 24.11666091 2 26 C1.34 26 0.68 26 0 26 C0 26.99 0 27.98 0 29 C-0.66 29 -1.32 29 -2 29 C-1.7834375 28.42894531 -1.566875 27.85789062 -1.34375 27.26953125 C1.77456764 18.18887479 1.74349545 9.39237874 0 0 Z " fill="#D47EA0" transform="translate(746,352)"/>
<path d="M0 0 C4.62 0 9.24 0 14 0 C14 2.97 14 5.94 14 9 C13.67 9 13.34 9 13 9 C13 6.69 13 4.38 13 2 C9.7 2.33 6.4 2.66 3 3 C2.34 4.65 1.68 6.3 1 8 C0.67 8 0.34 8 0 8 C0 5.36 0 2.72 0 0 Z " fill="#A63662" transform="translate(580,327)"/>
<path d="M0 0 C2.29141286 -0.05384521 4.58318188 -0.09272087 6.875 -0.125 C8.78925781 -0.15980469 8.78925781 -0.15980469 10.7421875 -0.1953125 C14 0 14 0 16 2 C12.71480525 3.09506492 10.26336585 3.09960608 6.8125 3.0625 C5.18248047 3.04896484 5.18248047 3.04896484 3.51953125 3.03515625 C2.68808594 3.02355469 1.85664062 3.01195312 1 3 C0.67 2.01 0.34 1.02 0 0 Z " fill="#C35F86" transform="translate(546,326)"/>
<path d="M0 0 C6.27 0.66 12.54 1.32 19 2 C19 2.66 19 3.32 19 4 C11.95559921 4.21133202 5.75887425 4.07965362 -1 2 C-0.67 1.34 -0.34 0.68 0 0 Z " fill="#C16085" transform="translate(539,390)"/>
<path d="M0 0 C2.45302403 3.67953604 2.29890995 5.68197465 2.3125 10.0625 C2.33763672 11.93615234 2.33763672 11.93615234 2.36328125 13.84765625 C2.18345703 15.40806641 2.18345703 15.40806641 2 17 C1.01 17.66 0.02 18.32 -1 19 C-2 16 -2 16 -1 13 C-0.77548542 10.77425665 -0.59217122 8.54418481 -0.4375 6.3125 C-0.35371094 5.13300781 -0.26992188 3.95351563 -0.18359375 2.73828125 C-0.12300781 1.83464844 -0.06242188 0.93101562 0 0 Z " fill="#CE6F94" transform="translate(579,360)"/>
<path d="M0 0 C1.0209375 0.433125 1.0209375 0.433125 2.0625 0.875 C8.00840077 3.15215349 13.70296564 4.33715428 20 5 C20 5.33 20 5.66 20 6 C6.3667426 6.55353075 6.3667426 6.55353075 0 3 C0 2.01 0 1.02 0 0 Z " fill="#C36289" transform="translate(704,387)"/>
<path d="M0 0 C7.12608999 0.29754029 12.6672508 1.71125344 19 5 C19 5.33 19 5.66 19 6 C16.69 6 14.38 6 12 6 C12 5.01 12 4.02 12 3 C11.38511719 2.95101563 10.77023437 2.90203125 10.13671875 2.8515625 C9.32847656 2.77679688 8.52023437 2.70203125 7.6875 2.625 C6.88699219 2.55539062 6.08648437 2.48578125 5.26171875 2.4140625 C3 2 3 2 0 0 Z " fill="#CC6C94" transform="translate(435,327)"/>
<path d="M0 0 C0.33 0 0.66 0 1 0 C1 7.59 1 15.18 1 23 C1.99 23.33 2.98 23.66 4 24 C3.67 24.99 3.34 25.98 3 27 C-0.89436219 23.74800683 -0.89436219 23.74800683 -1.36230469 20.43457031 C-1.29946289 19.49194336 -1.23662109 18.54931641 -1.171875 17.578125 C-1.11386719 16.55332031 -1.05585937 15.52851562 -0.99609375 14.47265625 C-0.91488281 13.40917969 -0.83367187 12.34570312 -0.75 11.25 C-0.68425781 10.17105469 -0.61851563 9.09210938 -0.55078125 7.98046875 C-0.38588202 5.31852411 -0.20164054 2.65937236 0 0 Z " fill="#B24270" transform="translate(82,93)"/>
<path d="M0 0 C0.33 0.66 0.66 1.32 1 2 C1.66 2.33 2.32 2.66 3 3 C2.67 3.66 2.34 4.32 2 5 C2.66 5 3.32 5 4 5 C4.69965443 6.26418246 5.38434763 7.53665402 6.0625 8.8125 C6.63677734 9.87404297 6.63677734 9.87404297 7.22265625 10.95703125 C8 13 8 13 7 16 C0.29612756 5.62642369 0.29612756 5.62642369 0 0 Z " fill="#CA698F" transform="translate(680,376)"/>
<path d="M0 0 C0 3.37075543 -0.70458685 4.71273253 -2.3125 7.625 C-2.74175781 8.42164063 -3.17101562 9.21828125 -3.61328125 10.0390625 C-5 12 -5 12 -8 13 C-6.63589551 7.40717158 -3.84616474 4.08806189 0 0 Z " fill="#C46086" transform="translate(394,338)"/>
<path d="M0 0 C0.66 0.33 1.32 0.66 2 1 C1.2575 1.515625 0.515 2.03125 -0.25 2.5625 C-3.53628545 5.47534392 -4.98763759 8.12433906 -7 12 C-7.66 12 -8.32 12 -9 12 C-8.8125 8.6875 -8.8125 8.6875 -8 5 C-5.625 3.1875 -5.625 3.1875 -3 2 C-2.01 1.34 -1.02 0.68 0 0 Z " fill="#E08CAF" transform="translate(536,343)"/>
<path d="M0 0 C0.99 0.33 1.98 0.66 3 1 C3.33 3.97 3.66 6.94 4 10 C3.01 10 2.02 10 1 10 C-0.1577506 6.52674819 -0.06866652 3.63932552 0 0 Z " fill="#BD6991" transform="translate(425,191)"/>
<path d="M0 0 C5.77759884 -0.12036664 11.27959989 0.1679418 17 1 C16.67 1.66 16.34 2.32 16 3 C10.22192976 3.2358396 5.48675196 2.86783046 0 1 C0 0.67 0 0.34 0 0 Z " fill="#C96D92" transform="translate(280,77)"/>
<path d="M0 0 C0.66 0 1.32 0 2 0 C3.47265625 1.6796875 3.47265625 1.6796875 5.0625 3.875 C5.85333984 4.95394531 5.85333984 4.95394531 6.66015625 6.0546875 C8 8 8 8 9 10 C7.65686601 9.35330586 6.32608822 8.68096422 5 8 C4.0925 7.566875 3.185 7.13375 2.25 6.6875 C1.5075 6.130625 0.765 5.57375 0 5 C-0.3125 2.3125 -0.3125 2.3125 0 0 Z " fill="#DC88AA" transform="translate(527,378)"/>
<path d="M0 0 C0.33 0.66 0.66 1.32 1 2 C0.06421005 4.35981813 -0.93347808 6.69631264 -2 9 C-2.66 9 -3.32 9 -4 9 C-4.33 9.99 -4.66 10.98 -5 12 C-5.33 11.34 -5.66 10.68 -6 10 C-5.29296875 8.125 -5.29296875 8.125 -4.1875 6 C-3.83042969 5.29875 -3.47335937 4.5975 -3.10546875 3.875 C-2 2 -2 2 0 0 Z " fill="#C86C90" transform="translate(687,338)"/>
<path d="M0 0 C1.79379098 0.44994757 3.58498928 0.91024143 5.375 1.375 C6.37273438 1.63023437 7.37046875 1.88546875 8.3984375 2.1484375 C11 3 11 3 13 5 C10.34501768 6.0169313 9.30844625 6.13022151 6.640625 5.00390625 C5.85171875 4.52824219 5.0628125 4.05257813 4.25 3.5625 C3.45078125 3.08941406 2.6515625 2.61632812 1.828125 2.12890625 C1.22484375 1.75636719 0.6215625 1.38382812 0 1 C0 0.67 0 0.34 0 0 Z " fill="#BD577E" transform="translate(695,398)"/>
<path d="M0 0 C0.33 0 0.66 0 1 0 C1 3.63 1 7.26 1 11 C1.66 11 2.32 11 3 11 C3.33 12.32 3.66 13.64 4 15 C2.68 14.67 1.36 14.34 0 14 C0 9.38 0 4.76 0 0 Z " fill="#B8587F" transform="translate(524,362)"/>
<path d="M0 0 C5.27315333 0.4452885 10.01770224 1.08373163 15 3 C13.1875 4.0625 13.1875 4.0625 11 5 C10.01 4.67 9.02 4.34 8 4 C8 3.34 8 2.68 8 2 C5.69 2 3.38 2 1 2 C0.67 1.34 0.34 0.68 0 0 Z " fill="#D584A6" transform="translate(307,81)"/>
<path d="M0 0 C0.66 0.33 1.32 0.66 2 1 C1.07161713 2.31896465 0.13194268 3.62998689 -0.8125 4.9375 C-1.59560547 6.03384766 -1.59560547 6.03384766 -2.39453125 7.15234375 C-4 9 -4 9 -7 10 C-7.66 9.34 -8.32 8.68 -9 8 C-8.071875 7.4225 -7.14375 6.845 -6.1875 6.25 C-3.40184158 4.28365288 -1.81261304 2.81962028 0 0 Z " fill="#D67DA0" transform="translate(742,381)"/>
<path d="M0 0 C0.66 0.33 1.32 0.66 2 1 C0.71186658 1.83878455 -0.58063256 2.67086783 -1.875 3.5 C-2.59429687 3.9640625 -3.31359375 4.428125 -4.0546875 4.90625 C-6 6 -6 6 -8 6 C-7 3 -7 3 -3.5625 1.25 C-2.386875 0.8375 -1.21125 0.425 0 0 Z " fill="#8E3769" transform="translate(353,330)"/>
<path d="M0 0 C0.99 0 1.98 0 3 0 C2.67 2.31 2.34 4.62 2 7 C1.34 7 0.68 7 0 7 C-1.125 2.25 -1.125 2.25 0 0 Z " fill="#C4749D" transform="translate(425,236)"/>
<path d="M0 0 C0.33 0.66 0.66 1.32 1 2 C3.02463255 2.65213292 3.02463255 2.65213292 5 3 C5.33 4.32 5.66 5.64 6 7 C2.73539027 5.19587357 1.11070205 4.16605307 -1 1 C-0.67 0.67 -0.34 0.34 0 0 Z " fill="#C5638B" transform="translate(315,479)"/>
<path d="M0 0 C2.475 0.495 2.475 0.495 5 1 C5 1.66 5 2.32 5 3 C6.32 3.66 7.64 4.32 9 5 C8.34 5.66 7.68 6.32 7 7 C5.83040013 6.02433888 4.66438823 5.044375 3.5 4.0625 C2.8503125 3.51722656 2.200625 2.97195313 1.53125 2.41015625 C1.0259375 1.94480469 0.520625 1.47945313 0 1 C0 0.67 0 0.34 0 0 Z " fill="#BF5E87" transform="translate(287,456)"/>
<path d="M0 0 C0.66 0.33 1.32 0.66 2 1 C0.08864614 4.53600465 -1.62642766 6.78972846 -5 9 C-3.7508258 5.54074837 -2.32472205 2.85306797 0 0 Z " fill="#B84C75" transform="translate(398,334)"/>
<path d="M0 0 C0.33 0 0.66 0 1 0 C1 2.64 1 5.28 1 8 C-0.32 8 -1.64 8 -3 8 C-3 7.01 -3 6.02 -3 5 C-2.34 5 -1.68 5 -1 5 C-0.67 3.35 -0.34 1.7 0 0 Z " fill="#DA82A8" transform="translate(579,327)"/>
<path d="M0 0 C5.53846154 0.61538462 5.53846154 0.61538462 7.875 2.5625 C8.431875 3.2740625 8.431875 3.2740625 9 4 C2.25 3.125 2.25 3.125 0 2 C0 1.34 0 0.68 0 0 Z " fill="#D27A9D" transform="translate(737,326)"/>
<path d="M0 0 C3.93673644 1.31224548 6.22719294 2.91910327 9 6 C6.75 6.375 6.75 6.375 4 6 C1.6875 3 1.6875 3 0 0 Z " fill="#E09ABA" transform="translate(359,101)"/>
<path d="M0 0 C0 1.65 0 3.3 0 5 C0.99 5 1.98 5 3 5 C2.67 5.99 2.34 6.98 2 8 C0.29115995 6.37660195 -1.37446717 4.70680947 -3 3 C-3 2.34 -3 1.68 -3 1 C-1 0 -1 0 0 0 Z " fill="#C76088" transform="translate(390,383)"/>
<path d="M0 0 C0.33 1.32 0.66 2.64 1 4 C-0.32 4.99 -1.64 5.98 -3 7 C-3 3 -3 3 -1.5 1.25 C-1.005 0.8375 -0.51 0.425 0 0 Z " fill="#C55E86" transform="translate(521,337)"/>
<path d="M0 0 C0.66 0 1.32 0 2 0 C2.33 2.64 2.66 5.28 3 8 C2.34 8 1.68 8 1 8 C0.67 5.36 0.34 2.72 0 0 Z " fill="#C399C4" transform="translate(582,473)"/>
<path d="M0 0 C-5.625 3 -5.625 3 -9 3 C-8.67 2.01 -8.34 1.02 -8 0 C-2.25 -1.125 -2.25 -1.125 0 0 Z " fill="#D27CA0" transform="translate(576,401)"/>
<path d="M0 0 C0.66 0.33 1.32 0.66 2 1 C0.7260411 3.03833424 -0.61061923 5.03852126 -2 7 C-2.66 7 -3.32 7 -4 7 C-3.43628586 3.73045798 -2.50037734 2.17424117 0 0 Z " fill="#D48EBE" transform="translate(409,280)"/>
<path d="M0 0 C0.99 0 1.98 0 3 0 C2.67 2.31 2.34 4.62 2 7 C1.34 7 0.68 7 0 7 C0 4.69 0 2.38 0 0 Z " fill="#C987A8" transform="translate(422,248)"/>
<path d="" fill="#F3F0F1" transform="translate(0,0)"/>
</svg>
